<svg xmlns="http://www.w3.org/2000/svg" xmlns:xlink="http://www.w3.org/1999/xlink" viewBox="2521 2576.475 1811 733.749"><defs><style>.a{fill:#8990a0;opacity:0.8;}.b{fill:url(#a);}.c{fill:#28292e;}</style><linearGradient id="a" x1="0.31" y1="0.4" x2="1.008" y2="0.767" gradientUnits="objectBoundingBox"><stop offset="0" stop-color="#28292e"/><stop offset="0.258" stop-color="#272b32"/><stop offset="0.506" stop-color="#24333d"/><stop offset="0.751" stop-color="#204051"/><stop offset="0.992" stop-color="#19516c"/><stop offset="1" stop-color="#19526d"/></linearGradient></defs><g transform="translate(2521 2576.475)"><g transform="translate(0 11.923)"><path class="a" d="M0,391.172H1811v-88.09l-37.959-15.774-29.387-16.855-40.048-35.87-47.322-9.292-30.972-80.455-23.985-15.63-21.1,12.533-22.329-6.555L1536.069,155.5l-45.45-32.2-63.745,20.168-55.606,66.7-61.728,3.817-77.79,36.878L1177.3,238.113,1164.4,257.92l-25.714,17.359-39.255-50.492-9.364,8.5-53.229-50.42L999.1,198.929l-16.062-4.97L911.3,213.983,890.266,196.12,863.616,208l-17.5-17.431-84.7,73.613-16.134-2.809h-55.39L673.03,239.625l-28.667,9-117.19-31.4L411.64,225.58l-36.59-25.21-84.7-11.308-72.1-36.446-28.091,21.608L159.9,226.3l-39.255,6.266-21.752,30.9L11.236,295.015,0,306.971Z" transform="translate(0 -46.413)"/><rect class="b" width="1811" height="377.067" transform="translate(0 344.76)"/><path class="c" d="M1811,748.335l-69.363-46.818-34.717-53.229-146.649,34.285-209.673-99.4-166.169-10.156-149.746-179.71L862.823,339,740.376,425.65l-58.7-54.741L621.458,388.7,564.7,354.846l-64.681,42.136-72.1,42.857L289.264,450,181.222,346.635l-79.015,45.306L0,434.509V828.574H1811Z" transform="translate(0 -106.748)"/><g transform="translate(792.901)"><path class="c" d="M1153.6,223.972c.072.072.216.144.288.216C1153.96,223.9,1153.888,223.828,1153.6,223.972Z" transform="translate(-1115.586 -74.552)"/><path class="c" d="M1154,224.3Z" transform="translate(-1115.698 -74.664)"/><path class="c" d="M1154,224.3Z" transform="translate(-1115.698 -74.664)"/><path class="c" d="M1269.352,186.069a7.557,7.557,0,0,1,2.3,4.25c.144,1.513.936,1.873,2.089,2.017a3.291,3.291,0,0,1,3.025,2.449c.72,2.089,2.953,2.953,4.25,4.682a33.828,33.828,0,0,0-4.9-9.292,9.253,9.253,0,0,1,9,6.555c.072.36.072.72.432.936v-1.441c2.809,4.106,4.9,8.283,8.571,12.1-4.466-1.008-5.474,2.449-7.2,4.61-1.08,1.441-1.657,1.441-2.665.072-.864-1.152-1.657-2.953-3.673-1.585-1.369.936-1.08,2.737.576,4.61a3.992,3.992,0,0,1,1.441,2.3,17.488,17.488,0,0,1-6.554-4.826c-.937-1.08.288-2.233,1.152-2.953,1.08-.936,1.8-1.8,1.585-3.385-.144-1.3,1.8-2.161,3.385-1.585a10.756,10.756,0,0,1,1.8.936c2.3,1.224,2.449,1.3,3.89-.648.576-.792.144-1.585-.937-1.873a11.374,11.374,0,0,1-5.258-3.529c-.36.648,0,1.369-.36,1.873-.576.864-1.008,1.513-2.089.36-.36-.36-.576-1.152-1.44-1.152-2.161,0-2.593-.576-1.657-2.593.216-.576,1.08-1.152.5-1.729-.648-.648-1.369.072-2.017.36a7.158,7.158,0,0,1-3.673.36c-.576-.072-1.369.072-1.441-.648-.144-.72.5-1.152,1.152-1.441.432-.216,1.08,0,1.513-.648-2.161.432-2.521-.864-2.809-2.449C1269.064,190.463,1268.416,188.374,1269.352,186.069Zm24.85,40.48c-.576.5-1.08-.144-1.44-.5a28.917,28.917,0,0,1-5.4-8.787c2.161,2.593,4.322,5.186,6.482,7.851C1294.13,225.468,1294.85,225.972,1294.2,226.549Zm-19.736-18.8c.432-1.152.648-2.089,1.8-2.089.432,0,.864.288.72.648C1276.627,207.245,1275.618,207.173,1274.466,207.749Zm-6.339,11.741c.576-.792,1.152-.576,1.8,0,2.3,1.873,4.034,4.034,3.457,7.347-1.873-1.8-3.673-3.6-5.546-5.33C1266.9,220.642,1267.623,220.138,1268.128,219.49Zm-8.211-32.773a203.6,203.6,0,0,1-26.506-10.66c3.673,1.8,8,1.729,11.6,3.817a96.3,96.3,0,0,0,8.787,3.962c.432-.936-.5-1.008-.432-1.441C1256.459,182.035,1258.836,182.972,1259.916,186.717Zm-6.122-7.131a50.669,50.669,0,0,1-11.957-3.457c-1.369-.576-.5-1.369-.144-1.873.432-.5.288-1.873,1.8-1.3,3.385,1.369,6.194,3.673,9.148,5.69A10.6,10.6,0,0,1,1253.794,179.586ZM1227.432,133.7c2.377-.216,4.538-.936,5.33-4.25,5.4,11.02,10.876,21.32,16.206,31.836-2.521-2.737-5.042-5.474-7.419-8.283-4.682-5.33-9.292-10.732-13.9-16.062a10.036,10.036,0,0,1-1.08-1.369C1225.847,134.5,1225.7,133.777,1227.432,133.7Zm4.9,41.632c-.072.144-.072.288-.144.36l-2.377-1.08c0-.144.072-.288.072-.432A25.506,25.506,0,0,0,1232.33,175.337Zm-3.385-1.513c0,.144-.072.216-.072.36-.72-.36-1.369-.648-2.089-1.008,0-.072.072-.144.072-.288A18.352,18.352,0,0,1,1228.944,173.824Zm-.648-54.6c.72,3.169.36,3.529-2.809,4.178-2.593.5-5.114-.072-7.635-.432a1.846,1.846,0,0,1-1.369-1.945c.072-.72,1.08-.36,1.729-.288a5.822,5.822,0,0,1,1.945.36C1223.326,122.468,1226.063,121.964,1228.3,119.227Zm-9.8-2.233c-.072.36-.144.72-.72.576a1.306,1.306,0,0,1-1.009-1.08c-.432-2.017-.792-3.962-1.224-6.05C1217.42,111.664,1219,115.265,1218.5,116.994Zm-11.668-6.483c.144.36.792,1.008-.072,1.224-.576.144-.864-.36-1.08-.864-.648-2.233-1.369-4.466-2.161-7.059A26.256,26.256,0,0,1,1206.832,110.511ZM1191.85,97.186a7.829,7.829,0,0,1,3.313,1.008c.72.288.937.072.72-.648,2.593,1.8,3.89,4.538,4.9,7.419C1197.684,102.66,1195.451,99.491,1191.85,97.186Zm43.289,176.541c-.36.792-.576,1.657-1.657,1.873-.576.144-.5.432.864,1.224-3.169-.432-5.114-2.809-7.851-2.809-.648.864-1.441.216-2.089,0-1.441-.36-2.881-.792-4.322-1.152h0a1.19,1.19,0,0,0-1.369,0c.216.432.648.288,1.08.432v0c1.729.72,3.529,1.441,5.186,2.089-4.826,3.1-10.228,2.593-15.63,2.665h-6.7c.36-1.513,1.729-2.449,2.3-3.817h0c.144-.144.216-.36.36-.5h0a2.189,2.189,0,0,0,.36-.5,11.077,11.077,0,0,1,.936-.864l.432-.432c.72,0,1.945-1.08,1.945-.36,0,1.224.648.936,1.08.864,1.585-.216,3.313.072,4.826-1.152-1.152-1.224-2.377-1.945-4.034-.936-.216.144-.72.288-.792.216-1.945-2.017-2.449.144-3.385,1.152h0l-.36.36h0c-.288.288-.576.648-.864.936h0l-.432.432-.432.432.36.36-.36-.36c-3.458,4.106-7.923,4.826-13.037,4.754-10.228-.072-20.528.432-30.828.72h-1.873c4.682-3.457,7.059-8.571,12.173-11.02.72,1.585.072,3.385.072,5.618,1.585-2.665.576-5.4,1.585-8.355,1.008,2.521.36,4.322.36,6.194a10.178,10.178,0,0,0,1.08-5.258,4.68,4.68,0,0,1,1.441-3.745q14.8-15.666,29.6-31.476c1.44-1.513,3.241-2.593,4.322-4.466.576-.936,1.009-.288,1.513.216,3.025,3.169,3.1,3.169,4.97-.792.792-1.657,1.152-3.529,3.385-3.89.36-.072.648-.576.936-.936.792-1.08,1.369-2.737,2.377-3.025,1.009-.216,2.3,1.008,3.53,1.441a45.231,45.231,0,0,0,14.189,2.161c2.881.072,5.762,0,8.643,0a4.323,4.323,0,0,1,2.449.648c1.657,1.08,2.3,2.161.792,3.745h0c-.072.072-.216.216-.216.288.144.216.36.144.5,0h0a17.129,17.129,0,0,1,1.945-.864c.432,2.737-2.737,4.25-2.161,6.843h.864c.072-.072.144-.216.216-.288-.072.072-.144.216-.216.288l.144.144h0c-2.665,5.978-5.258,12.029-7.923,18.007C1241.981,258.529,1238.524,266.092,1235.139,273.727Zm18.367-41.128c0-.072-.072-.144-.144-.216h0C1253.434,232.455,1253.506,232.527,1253.506,232.6Zm-6.338,46.026c-.864.576-1.585-.144-2.593-.576.864-.72,1.512-1.441,2.3-.576C1247.167,277.761,1247.528,278.337,1247.167,278.625Zm97.166,18.511a14.513,14.513,0,0,0-.36-3.962c-.432-2.881,1.512-5.906,4.322-6.122a3.063,3.063,0,0,0,3.1-2.521c.36-1.513,1.368-1.945,2.737-2.017,2.089-.144,4.177-.432,6.771-.72a18.919,18.919,0,0,0-1.945-1.8,285.328,285.328,0,0,1-23.7-22.977C1321.5,242.251,1309.616,225.9,1296,210.991c-.36-.36-.864-.792-.5-1.369,1.009-1.369,0-2.3-.648-3.385-9-14.478-15.918-30.036-22.185-45.81-3.529-8.787-6.122-18.007-9.364-26.938-3.457-9.724-27.587-19.376-31.476-28.955-.36-.864-.648-2.233-1.8-1.729-.864.36.072,1.441.36,2.089,2.377,6.7,27.227,21.464,29.6,28.163,5.042,14.262,8.211,20.312,13.253,34.573,1.152,3.313,2.377,6.7,3.529,10.012.288.792.864,1.8.216,2.521-.576.648-1.513-.216-2.233-.432-2.3-.72-4.61-1.513-6.915-2.233a10.307,10.307,0,0,1-4.682-3.1,21.756,21.756,0,0,0-5.546-5.042,5.936,5.936,0,0,1-2.593-2.881q-13.83-28.631-27.731-57.19a3.7,3.7,0,0,0-1.513-2.089h0c5.33,11.957,10.588,23.913,15.918,35.942a2.157,2.157,0,0,0-.576.288c-3.385-5.762-6.266-11.813-9.292-17.791-.144.144-.288.216-.432.36.864,1.369.144,2.233-.936,2.881a6.788,6.788,0,0,1-7.347-.144c2.377-.072,3.889-2.3,6.338-2.449,1.081-.072.144-1.657.576-2.665.36.5.72.936,1.08,1.369a1.571,1.571,0,0,0,.36-.288c-1.008-1.873-1.224-4.106-2.953-5.546.072-2.017-1.008-3.6-1.873-5.33-1.729-3.457-3.241-7.059-4.826-10.588h0a109.435,109.435,0,0,0,4.178,10.876c.5,1.152.432,1.729-.936,2.089-1.08.288-1.873.576-2.233-1.008-1.224-5.906-4.394-10.732-8.571-14.982a10.84,10.84,0,0,0-4.25-2.953c1.585,2.593,3.1,4.61,3.529,7.2-2.737-4.034-5.474-7.923-9.8-10.444a77.16,77.16,0,0,1,9,20.96c.216.288.288.5.072.792a2.192,2.192,0,0,1-.36-.5c-.864-.5-.936-1.441-1.3-2.233a57.8,57.8,0,0,0-6.555-13.4c-2.3-3.313-4.754-6.555-8.715-8.139l-.216.216c.432,1.008,1.657,1.657,1.657,3.1-1.585-.936-2.521-2.377-4.322-2.665l-.072.072c-.432.36.72,1.08-.216,1.224-.576.072-1.008-.5-1.513-.792-3.169-1.8-5.906-4.61-10.012-3.89-.5.072-.648-.36-.937-.648-1.584-1.657-2.665-3.817-4.466-5.33-.144.072-1.945-2.089-1.729-2.233a13.571,13.571,0,0,0-1.8-2.233c-1.945-1.657-2.377-3.673-2.3-6.122a97.789,97.789,0,0,0-.576-15.918c-.5-3.89.288-5.69,3.745-7.563a26.481,26.481,0,0,1,9.148-3.1c6.41-.864,11.74-3.745,16.638-7.779l2.809-2.161a18.283,18.283,0,0,1,8.643-3.745,26.181,26.181,0,0,1,11.092-.072,36.461,36.461,0,0,0-6.771-4.178,1.619,1.619,0,0,0-1.513-.072c-1.584,1.224-3.529.864-5.258,1.152-14.55,2.3-29.171,4.394-43.793,6.627-2.089.288-4.034-.36-6.122-.288-.5,0-.936-.144-.936-.72a12.436,12.436,0,0,1,0-4.322,5.359,5.359,0,0,1,1.224,2.809c.288,1.08.864,1.224,1.729.792.792-.36,1.8-.5,2.233-1.369.5-1.152,1.441-1.224,2.521-1.369,1.657-.144,3.745.144,4.97-.648a26.977,26.977,0,0,0,6.554-6.555,1.98,1.98,0,0,1,1.585-1.08c2.809-.144,5.618-.432,8.427-.5a112.626,112.626,0,0,1,14.262.936c-1.729-.576-2.233-1.945-3.6-1.729-4.97.648-9.94-.288-14.838.216-7.059.72-13.613-1.441-20.1-3.385-5.114-1.513-10.012-2.449-15.126-.576-.648.216-1.729.144-1.584,1.152.072.864,1.08.936,1.8,1.008,1.3.144,2.665,0,3.6,1.441a15.1,15.1,0,0,1-1.513.36c-7.563.792-14.261,4.178-20.456,7.923-9.652,5.906-15.054,15.054-16.422,26.362-1.44,12.029-2.593,24.057-3.817,36.086a3.641,3.641,0,0,0,.288,2.593c.792,1.152.432,2.233-.144,3.313-1.152,2.089-2.377,4.106-3.385,6.194-1.873,3.89-3.745,7.851-4.322,12.245-.72,4.97,1.657,9.436,5.979,10.948a5.592,5.592,0,0,1,2.953,2.161c7.563,10.228,15.2,20.384,22.761,30.54.72,1.008,6.843,6.483,6.771,6.483a7.485,7.485,0,0,0,.864,1.224c7.779,8.787,15.7,17.5,23.121,26.578a44.341,44.341,0,0,0,25.642,15.846c2.665.576,5.474.792,8.5,1.224-3.818,6.05-7.419,11.885-11.236,18.007,6.194-.864,10.156-4.466,13.829-9a8.268,8.268,0,0,1-1.945,7.059c-12.893,15.486-26.074,30.756-38.823,46.386-3.241,4.034-6.483,6.627-11.957,5.834-2.809-.36-5.762.36-8.283-1.513a1.839,1.839,0,0,0-2.233.072,47.766,47.766,0,0,0-5.834,3.457h0c.144-.648-.144-.72-.648-.36l-12.749,6.483c3.385.144,6.915,1.3,9.436-1.657.072-.072.288,0,.432,0l.144.144c-.432.576-.864,1.224-1.224,1.8h0c-.144.216-.432.576-.432.576.36.288.576.144.792-.216,1.945-1.368,3.89-2.665,6.122-4.25,0,1.729.072,2.953,0,4.25-.072,1.152.288,1.441,1.513,1.369,21.32-.36,42.713-.648,64.033-.936,12.6-.144,25.282-.36,37.887-.5,2.521,0,4.97-.216,7.491.432q32.953,8.427,66.05,16.927c2.017.5,5.186,2.377,4.754,2.521l8.643-7.275c-.864,0-1.3-.36-1.152-1.152.144-1.513-.72-1.873-1.945-1.945-3.025-.216-6.05-.72-9.076-.792-6.626-.216-12.749-2.377-18.943-4.25-11.02-3.385-22.041-6.771-32.989-10.084-1.152-.36-2.161-.5-1.657-2.233.36-1.224-.648-1.441-1.8-1.513-2.593-.072-5.114-.5-6.987-2.593-.216-.216-.72-.216-.5-.792.5-1.513.5-1.513-1.3-1.441-2.161,0-2.593-.5-1.8-2.449,6.266-14.766,12.461-29.531,18.727-44.225a6.1,6.1,0,0,1,.648-1.008c4.538,4.826,8.931,9.508,13.325,14.19-.5.36-1.441.072-2.665.432,18.727,19.808,37.311,39.543,55.966,59.279C1330.648,300.377,1344.117,299.009,1344.333,297.136Zm-6.411-19.015a122.812,122.812,0,0,1-17-14.117c-.936-.864-1.512-1.729-.936-3.1.5-1.08-.216-2.017-.936-2.737-7.707-6.987-12.677-16.062-19.159-23.985-.936-1.152-1.873-2.3-2.809-3.385a3.773,3.773,0,0,1-1.08-3.025c14.55,17.215,28.523,34.5,43.289,51.068A6.107,6.107,0,0,1,1337.923,278.121Z" transform="translate(-1100.823 -16.553)"/><path class="c" d="M1311.1,316.7Z" transform="translate(-1159.642 -100.51)"/><path class="c" d="M1128.585,381.206a4.047,4.047,0,0,0,1.441.216c-1.008-1.008-2.521-.792-3.241-2.017,1.729-1.152,3.673,1.08,5.186-.5-.864-1.3-2.521-1.945-3.673-3.1-.648-.72-1.224-.648-1.8.072-2.737,3.169-6.483,5.114-9.8,7.563.5,1.008,1.152,1.369,2.161.432.432-.432,1.008-.648,1.441-1.08C1122.75,380.63,1125.343,379.333,1128.585,381.206Z" transform="translate(-1105.264 -116.902)"/><path class="c" d="M1275.4,373.9Z" transform="translate(-1149.656 -116.51)"/><path class="c" d="M1274.544,373.4c-.072,0-.072.072-.144.144.216.072.432.144.72.216C1275.048,373.4,1274.832,373.4,1274.544,373.4Z" transform="translate(-1149.376 -116.371)"/><path class="c" d="M1311,316.7Z" transform="translate(-1159.614 -100.51)"/><path class="c" d="M1310.4,317.2Z" transform="translate(-1159.446 -100.65)"/><path class="c" d="M1310.832,316.7c-.144.144-.288.216-.432.36C1310.76,317.2,1310.9,317.06,1310.832,316.7Z" transform="translate(-1159.446 -100.51)"/><path class="c" d="M1310.3,317.2v.072s.072,0,0-.072Z" transform="translate(-1159.418 -100.65)"/><path class="c" d="M1310.272,317.516V317.3l-.072.072A.251.251,0,0,0,1310.272,317.516Z" transform="translate(-1159.39 -100.678)"/><path class="c" d="M1358.888,273.06c-.072-.144-.072-.288-.144-.36-.072.144-.144.216-.144.36a.55.55,0,0,0,.144.36C1358.816,273.276,1358.816,273.2,1358.888,273.06Z" transform="translate(-1172.929 -88.203)"/><path class="c" d="M1357.6,268.936a.874.874,0,0,0-.216-.936C1357.379,268.36,1357.163,268.72,1357.6,268.936Z" transform="translate(-1172.572 -86.888)"/><path class="c" d="M1357.3,268Z" transform="translate(-1172.565 -86.888)"/><path class="c" d="M1358.288,271.26c-.072-.144-.072-.288-.144-.36-.072.072-.144.072-.144.144a3.121,3.121,0,0,0,.072.36C1358.144,271.332,1358.216,271.26,1358.288,271.26Z" transform="translate(-1172.761 -87.699)"/></g></g><path class="c" d="M1230.772,70.979l2.953-18.007-3.025,2.017,3.674-5.186,16.854-23.337L1283.136,11.7l.648,3.313-28.811,10.732-19.448,30.036-1.513,13.037Z" transform="translate(-344.251 -3.273)"/><path class="c" d="M1246,58.649l4.034,2.593h9.22l5.186-2.593L1254,56.2Z" transform="translate(-348.531 -15.72)"/><path class="c" d="M1270.9,29.677l4.106,2.665h9.148l5.258-2.665L1278.9,27.3Z" transform="translate(-355.496 -7.636)"/><path class="c" d="M1270.2,17.658l3.457-2.593,2.737-7.707L1275.6,2.1l-5.258,8.067Z" transform="translate(-355.3 -0.587)"/><path class="c" d="M1257.1,46.721l5.258-2.521,7.419,1.3,2.521,2.665-7.707,2.233Z" transform="translate(-351.636 -12.364)"/><path class="c" d="M1284.52,13.048l-.72-4.394,2.449-5.258,2.521-1.3.072,6.194Z" transform="translate(-359.105 -0.587)"/><path class="c" d="M1294.7,9.508l.432-4.466,3.745-4.394L1301.687,0,1300.1,5.978Z" transform="translate(-362.154)"/><path class="c" d="M1236.1,57.268l-3.1-3.241-.5-3.673,3.313-2.953,1.225,3.529Z" transform="translate(-344.755 -13.259)"/><path class="c" d="M1242.689,48.915l-2.089-3.962.864-1.945,4.466-2.809-.648,2.809Z" transform="translate(-347.021 -11.245)"/></g></svg>