<svg xmlns="http://www.w3.org/2000/svg" viewBox="0 0 28.23 9.27"><defs><style>.cls-1{opacity:0.5;}.cls-2{fill:#37202e;}</style></defs><title>nave-3</title><g id="Layer_2" data-name="Layer 2"><g id="Layer_1-2" data-name="Layer 1"><g class="cls-1"><path class="cls-2" d="M28,5.53a29.55,29.55,0,0,0-8.75-2.09A5.11,5.11,0,0,0,14.17,0,5.11,5.11,0,0,0,9,3.35,29.46,29.46,0,0,0,.22,5.29a.35.35,0,0,0-.11.57c.72.72,2.73,1.65,6.67,2.21A1.14,1.14,0,0,0,7.9,9.16l12.37.11a1.15,1.15,0,0,0,1.15-1.08c3.85-.5,5.93-1.38,6.7-2.08A.35.35,0,0,0,28,5.53Z"/></g></g></g></svg>